<svg version="1.1" id="Layer_1" xmlns="http://www.w3.org/2000/svg" xmlns:xlink="http://www.w3.org/1999/xlink" x="0px" y="0px"
	 width="100%" viewBox="0 0 512 512" enable-background="new 0 0 512 512" xml:space="preserve">
<path fill="#E21B1B" opacity="1.000000" stroke="none" 
	d="
M235.000000,1.000000 
	C249.354233,1.000000 263.708466,1.000000 278.712097,1.390984 
	C287.448242,2.851145 295.551453,3.809658 303.618591,5.010626 
	C326.211792,8.374112 347.555939,15.815434 368.060242,25.618624 
	C388.538422,35.409306 407.336639,47.792812 424.466827,62.816711 
	C439.903290,76.355141 453.915253,91.149010 465.890717,107.763733 
	C479.106934,126.099861 489.746887,145.959122 497.517731,167.184433 
	C504.096558,185.153854 509.050537,203.611801 511.039276,222.754929 
	C511.465790,226.860214 512.334839,230.919510 513.000000,235.000000 
	C513.000000,249.354233 513.000000,263.708466 512.609009,278.712097 
	C511.148834,287.448273 510.190308,295.551544 508.989349,303.618713 
	C505.625946,326.211914 498.184509,347.556061 488.381348,368.060333 
	C478.590637,388.538513 466.207092,407.336700 451.183228,424.466919 
	C437.644836,439.903381 422.850891,453.915222 406.236176,465.890717 
	C387.900085,479.106964 368.040833,489.746857 346.815521,497.517700 
	C328.846130,504.096558 310.388184,509.050537 291.245056,511.039307 
	C287.139801,511.465820 283.080475,512.334839 279.000000,513.000000 
	C264.645782,513.000000 250.291550,513.000000 235.287918,512.609009 
	C226.551758,511.148834 218.448502,510.190338 210.381363,508.989410 
	C187.788177,505.625946 166.444031,498.184479 145.939728,488.381348 
	C125.461540,478.590637 106.663338,466.207123 89.533112,451.183258 
	C74.096642,437.644867 60.084755,422.850922 48.109280,406.236237 
	C34.893032,387.900146 24.253120,368.040863 16.482264,346.815552 
	C9.903425,328.846130 4.949452,310.388184 2.960706,291.245087 
	C2.534216,287.139801 1.665174,283.080475 1.000000,279.000000 
	C1.000000,264.645782 1.000000,250.291550 1.390992,235.287903 
	C2.851158,226.551743 3.809670,218.448486 5.010632,210.381348 
	C8.374094,187.788162 15.815451,166.444000 25.618626,145.939697 
	C35.409313,125.461517 47.792854,106.663322 62.816757,89.533134 
	C76.355171,74.096703 91.149025,60.084724 107.763741,48.109264 
	C126.099869,34.893055 145.959106,24.253126 167.184418,16.482267 
	C185.153854,9.903427 203.611801,4.949448 222.754929,2.960706 
	C226.860214,2.534216 230.919510,1.665175 235.000000,1.000000 
M302.283417,194.783066 
	C287.290070,209.862213 272.296692,224.941360 256.572021,240.755966 
	C226.982086,211.165344 197.951797,182.134415 169.729614,153.911591 
	C164.366806,159.236481 158.886505,164.678024 152.506470,171.012955 
	C181.105164,199.610535 210.135635,228.639877 239.532532,258.035645 
	C210.827209,286.741974 181.869583,315.700623 153.159851,344.411377 
	C158.642456,349.878235 164.143402,355.363403 170.140732,361.343506 
	C198.905167,332.543549 227.934982,303.477905 257.472107,273.904327 
	C286.650543,303.097565 315.678467,332.140259 344.119080,360.595276 
	C349.736420,354.990875 355.219666,349.520294 361.478088,343.276276 
	C332.807312,314.618347 303.757446,285.581482 274.455536,256.292725 
	C303.280426,227.459854 332.242645,198.489624 360.875763,169.848602 
	C355.368286,164.238510 349.924164,158.692993 344.125305,152.786087 
	C330.483826,166.478745 316.633636,180.380890 302.283417,194.783066 
z"/>
<path fill="#FFFFFF" opacity="1.000000" stroke="none" 
	d="
M234.531342,1.000000 
	C230.919510,1.665175 226.860214,2.534216 222.754929,2.960706 
	C203.611801,4.949448 185.153854,9.903427 167.184418,16.482267 
	C145.959106,24.253126 126.099869,34.893055 107.763741,48.109264 
	C91.149025,60.084724 76.355171,74.096703 62.816757,89.533134 
	C47.792854,106.663322 35.409313,125.461517 25.618626,145.939697 
	C15.815451,166.444000 8.374094,187.788162 5.010632,210.381348 
	C3.809670,218.448486 2.851158,226.551743 1.390992,234.819244 
	C1.000000,157.072952 1.000000,79.145912 1.000000,1.000000 
	C78.687424,1.000000 156.375061,1.000000 234.531342,1.000000 
z"/>
<path fill="#FFFFFF" opacity="1.000000" stroke="none" 
	d="
M513.000000,234.531342 
	C512.334839,230.919510 511.465790,226.860214 511.039276,222.754929 
	C509.050537,203.611801 504.096558,185.153854 497.517731,167.184433 
	C489.746887,145.959122 479.106934,126.099861 465.890717,107.763733 
	C453.915253,91.149010 439.903290,76.355141 424.466827,62.816711 
	C407.336639,47.792812 388.538422,35.409306 368.060242,25.618624 
	C347.555939,15.815434 326.211792,8.374112 303.618591,5.010626 
	C295.551453,3.809658 287.448242,2.851145 279.180725,1.390984 
	C356.927032,1.000000 434.854095,1.000000 513.000000,1.000000 
	C513.000000,78.687424 513.000000,156.375061 513.000000,234.531342 
z"/>
<path fill="#FFFFFF" opacity="1.000000" stroke="none" 
	d="
M1.000000,279.468658 
	C1.665174,283.080475 2.534216,287.139801 2.960706,291.245087 
	C4.949452,310.388184 9.903425,328.846130 16.482264,346.815552 
	C24.253120,368.040863 34.893032,387.900146 48.109280,406.236237 
	C60.084755,422.850922 74.096642,437.644867 89.533112,451.183258 
	C106.663338,466.207123 125.461540,478.590637 145.939728,488.381348 
	C166.444031,498.184479 187.788177,505.625946 210.381363,508.989410 
	C218.448502,510.190338 226.551758,511.148834 234.819260,512.609009 
	C157.072968,513.000000 79.145927,513.000000 1.000000,513.000000 
	C1.000000,435.312561 1.000000,357.624939 1.000000,279.468658 
z"/>
<path fill="#FFFFFF" opacity="1.000000" stroke="none" 
	d="
M279.468658,513.000000 
	C283.080475,512.334839 287.139801,511.465820 291.245056,511.039307 
	C310.388184,509.050537 328.846130,504.096558 346.815521,497.517700 
	C368.040833,489.746857 387.900085,479.106964 406.236176,465.890717 
	C422.850891,453.915222 437.644836,439.903381 451.183228,424.466919 
	C466.207092,407.336700 478.590637,388.538513 488.381348,368.060333 
	C498.184509,347.556061 505.625946,326.211914 508.989349,303.618713 
	C510.190308,295.551544 511.148834,287.448273 512.609009,279.180725 
	C513.000000,356.927032 513.000000,434.854095 513.000000,513.000000 
	C435.312561,513.000000 357.624939,513.000000 279.468658,513.000000 
z"/>
<path fill="#FFFFFF" opacity="1.000000" stroke="none" 
	d="
M302.533417,194.533051 
	C316.633636,180.380890 330.483826,166.478745 344.125305,152.786087 
	C349.924164,158.692993 355.368286,164.238510 360.875763,169.848602 
	C332.242645,198.489624 303.280426,227.459854 274.455536,256.292725 
	C303.757446,285.581482 332.807312,314.618347 361.478088,343.276276 
	C355.219666,349.520294 349.736420,354.990875 344.119080,360.595276 
	C315.678467,332.140259 286.650543,303.097565 257.472107,273.904327 
	C227.934982,303.477905 198.905167,332.543549 170.140732,361.343506 
	C164.143402,355.363403 158.642456,349.878235 153.159851,344.411377 
	C181.869583,315.700623 210.827209,286.741974 239.532532,258.035645 
	C210.135635,228.639877 181.105164,199.610535 152.506470,171.012955 
	C158.886505,164.678024 164.366806,159.236481 169.729614,153.911591 
	C197.951797,182.134415 226.982086,211.165344 256.572021,240.755966 
	C272.296692,224.941360 287.290070,209.862213 302.533417,194.533051 
z"/>
</svg>