<svg version="1.1" id="Layer_1" xmlns="http://www.w3.org/2000/svg" xmlns:xlink="http://www.w3.org/1999/xlink" x="0px" y="0px"
	 width="100%" viewBox="0 0 512 512" enable-background="new 0 0 512 512" xml:space="preserve">
<path fill="#47704C" opacity="1.000000" stroke="none" 
	d="
M1.000000,178.000000 
	C1.000000,118.666664 1.000000,59.833332 1.000000,1.000000 
	C171.666672,1.000000 342.333344,1.000000 513.000000,1.000000 
	C513.000000,171.666672 513.000000,342.333344 513.000000,513.000000 
	C342.333344,513.000000 171.666672,513.000000 1.000000,513.000000 
	C1.000000,401.500000 1.000000,290.000000 1.000000,178.000000 
M484.514893,61.386463 
	C483.029938,61.258026 481.544952,61.017281 480.059998,61.017113 
	C331.397430,61.000000 182.734879,60.997459 34.072334,61.045975 
	C32.371872,61.046532 30.671629,61.724041 28.232054,62.043762 
	C21.625263,64.737564 19.059118,71.369835 22.484205,77.070923 
	C26.078541,83.053726 29.656277,89.049934 33.411701,94.931450 
	C36.403076,99.616356 39.939415,103.970200 42.722008,108.767860 
	C47.822525,117.562012 52.236378,126.762238 57.497360,135.453690 
	C65.625221,148.881393 74.285690,161.985535 82.604416,175.299286 
	C88.935242,185.431503 94.987724,195.738037 101.346344,205.852402 
	C107.027290,214.888840 113.214668,223.614243 118.704521,232.761398 
	C123.992714,241.572556 128.390411,250.918594 133.688553,259.723236 
	C141.525177,272.746368 149.859787,285.468842 157.891815,298.375702 
	C164.292511,308.661133 170.445190,319.102020 176.916946,329.341827 
	C182.662781,338.433075 188.847748,347.247894 194.546722,356.367340 
	C198.073883,362.011444 200.834030,368.133240 204.331467,373.797974 
	C210.110855,383.158783 216.347870,392.237122 222.125168,401.599152 
	C226.471268,408.641968 230.374191,415.957306 234.519897,423.125031 
	C239.410461,431.580627 244.079178,440.187256 249.463684,448.318054 
	C250.768372,450.288208 254.515366,451.532776 257.118683,451.499512 
	C259.704773,451.466461 263.417816,450.120056 264.660187,448.121155 
	C279.025024,425.008759 292.959808,401.629761 307.117889,378.388000 
	C322.719452,352.776672 338.435303,327.234955 354.099823,301.661957 
	C367.412323,279.928833 380.655212,258.152740 394.055176,236.473709 
	C404.834045,219.035126 415.921814,201.786972 426.652740,184.319290 
	C437.822571,166.137131 448.713867,147.783997 459.754547,129.522324 
	C470.343842,112.007294 480.984924,94.523575 491.568115,77.004875 
	C494.961945,71.387016 491.378021,63.304600 484.514893,61.386463 
z"/>
<path fill="#000000" opacity="1.000000" stroke="none" 
	d="
M485.028992,62.085564 
	C491.378021,63.304600 494.961945,71.387016 491.568115,77.004875 
	C480.984924,94.523575 470.343842,112.007294 459.754547,129.522324 
	C448.713867,147.783997 437.822571,166.137131 426.652740,184.319290 
	C415.921814,201.786972 404.834045,219.035126 394.055176,236.473709 
	C380.655212,258.152740 367.412323,279.928833 354.099823,301.661957 
	C338.435303,327.234955 322.719452,352.776672 307.117889,378.388000 
	C292.959808,401.629761 279.025024,425.008759 264.660187,448.121155 
	C263.417816,450.120056 259.704773,451.466461 257.118683,451.499512 
	C254.515366,451.532776 250.768372,450.288208 249.463684,448.318054 
	C244.079178,440.187256 239.410461,431.580627 234.519897,423.125031 
	C230.374191,415.957306 226.471268,408.641968 222.125168,401.599152 
	C216.347870,392.237122 210.110855,383.158783 204.331467,373.797974 
	C200.834030,368.133240 198.073883,362.011444 194.546722,356.367340 
	C188.847748,347.247894 182.662781,338.433075 176.916946,329.341827 
	C170.445190,319.102020 164.292511,308.661133 157.891815,298.375702 
	C149.859787,285.468842 141.525177,272.746368 133.688553,259.723236 
	C128.390411,250.918594 123.992714,241.572556 118.704521,232.761398 
	C113.214668,223.614243 107.027290,214.888840 101.346344,205.852402 
	C94.987724,195.738037 88.935242,185.431503 82.604416,175.299286 
	C74.285690,161.985535 65.625221,148.881393 57.497360,135.453690 
	C52.236378,126.762238 47.822525,117.562012 42.722008,108.767860 
	C39.939415,103.970200 36.403076,99.616356 33.411701,94.931450 
	C29.656277,89.049934 26.078541,83.053726 22.484205,77.070923 
	C19.059118,71.369835 21.625263,64.737564 28.588591,62.033062 
	C28.945127,62.022362 28.917734,61.959702 29.194117,62.293667 
	C30.954956,62.751381 32.439404,62.983349 33.923870,62.983513 
	C182.597290,63.000004 331.270721,63.002449 479.944153,62.955925 
	C481.656952,62.955391 483.369568,62.306133 485.068665,61.991043 
	C485.055054,62.022385 485.028992,62.085564 485.028992,62.085564 
M268.000000,230.500000 
	C268.000000,287.849518 268.000000,345.199036 268.000000,402.548553 
	C268.580200,402.711578 269.160400,402.874603 269.740601,403.037659 
	C331.458527,302.300201 393.176453,201.562759 454.894348,100.825310 
	C452.760468,100.457558 451.258057,100.885986 449.898651,101.590324 
	C443.965576,104.664230 438.099823,107.868240 432.161957,110.932724 
	C420.248322,117.081268 408.334442,123.230736 396.360260,129.259903 
	C389.009338,132.961212 381.420868,136.204681 374.164093,140.075623 
	C363.928802,145.535400 353.971130,151.514481 343.754639,157.011108 
	C339.122986,159.503021 334.005463,161.090897 329.369629,163.576294 
	C319.445465,168.896912 309.760193,174.662506 299.847839,180.006104 
	C290.233765,185.188889 280.409088,189.981613 270.809387,195.189850 
	C269.473145,195.914841 268.124817,198.019684 268.090576,199.515701 
	C267.862030,209.505920 267.988678,219.504288 268.000000,230.500000 
M233.879837,385.688202 
	C237.388382,391.448792 240.896912,397.209412 244.405441,402.970032 
	C244.819412,402.838348 245.233383,402.706696 245.647354,402.575043 
	C245.764557,401.003815 245.983826,399.432617 245.984238,397.861359 
	C246.001419,332.546753 245.961685,267.232117 246.086685,201.917740 
	C246.094635,197.763870 244.588211,195.610764 240.976364,193.914963 
	C233.218994,190.272736 225.582108,186.361267 217.995895,182.369934 
	C203.538086,174.763306 189.174377,166.977951 174.726746,159.351807 
	C160.076431,151.618652 145.342422,144.043808 130.710358,136.276611 
	C126.667694,134.130615 122.990715,131.284653 118.915619,129.212936 
	C108.171394,123.750710 97.264359,118.609619 86.492661,113.200256 
	C78.796944,109.335594 71.234245,105.206642 63.563404,101.291222 
	C62.328522,100.660896 60.838295,100.530830 58.296909,99.861656 
	C62.212303,106.095863 65.370430,111.029030 68.434753,116.019798 
	C82.228836,138.485794 95.998596,160.966721 109.772758,183.444946 
	C125.037582,208.355804 140.297043,233.269974 155.559967,258.182007 
	C169.272156,280.562897 182.968903,302.953247 196.703934,325.320099 
	C208.942398,345.249878 221.223984,365.153168 233.879837,385.688202 
M78.726646,83.006615 
	C78.024887,83.131035 77.323128,83.255455 76.621368,83.379883 
	C76.520157,83.793381 76.418945,84.206886 76.317726,84.620392 
	C81.051735,87.022629 85.805847,89.386185 90.516014,91.834297 
	C105.033875,99.379974 119.575432,106.881889 134.019638,114.566483 
	C138.792267,117.105606 143.150726,120.433441 147.956314,122.898094 
	C156.496689,127.278214 165.287582,131.167206 173.873337,135.462265 
	C182.368271,139.711884 190.742096,144.203842 199.163620,148.599884 
	C206.978073,152.679062 214.832947,156.684341 222.577881,160.891769 
	C227.179428,163.391571 231.541031,166.330658 236.121658,168.871887 
	C242.236053,172.264023 248.410965,175.557297 254.674988,178.660690 
	C255.903198,179.269165 257.968109,179.393677 259.117249,178.768097 
	C269.162506,173.299316 278.951599,167.349564 289.083618,162.053223 
	C300.698914,155.981506 312.696289,150.641434 324.321167,144.587021 
	C333.407471,139.854706 342.112946,134.397064 351.108795,129.483459 
	C359.444611,124.930351 367.943970,120.676781 376.366180,116.281525 
	C390.133698,109.096741 403.878479,101.868034 417.673920,94.737312 
	C421.633301,92.690742 425.782318,91.012375 429.753113,88.986328 
	C432.509064,87.580154 435.108856,85.867950 437.778412,84.292473 
	C437.596527,83.862282 437.414612,83.432083 437.232697,83.001892 
	C317.979797,83.001892 198.726913,83.001892 78.726646,83.006615 
M187.500000,81.000000 
	C148.441040,81.000000 109.382080,81.000000 70.323120,81.000000 
	C70.324959,81.245796 70.326805,81.491600 70.328644,81.737396 
	C194.818329,81.737396 319.308014,81.737396 443.797729,81.737396 
	C443.797852,81.491600 443.798004,81.245796 443.798157,81.000000 
	C358.698761,81.000000 273.599396,81.000000 187.500000,81.000000 
M266.000000,300.500000 
	C266.000000,336.398590 266.000000,372.297150 266.000000,408.195740 
	C266.340179,408.192963 266.680389,408.190186 267.020569,408.187408 
	C267.020569,338.739807 267.020569,269.292206 267.020569,199.844604 
	C266.680389,199.843948 266.340179,199.843292 266.000000,199.842636 
	C266.000000,233.061752 266.000000,266.280884 266.000000,300.500000 
M247.000061,397.121704 
	C247.000061,398.746155 247.000061,400.370605 247.000061,401.995056 
	C247.241074,401.985687 247.482101,401.976288 247.723114,401.966919 
	C247.723114,334.601105 247.723114,267.235321 247.723114,199.869507 
	C247.482071,199.869385 247.241043,199.869263 247.000000,199.869141 
	C247.000000,265.318634 247.000000,330.768158 247.000061,397.121704 
z"/>
<path fill="#000000" opacity="1.000000" stroke="none" 
	d="
M28.958206,62.053955 
	C30.671629,61.724041 32.371872,61.046532 34.072334,61.045975 
	C182.734879,60.997459 331.397430,61.000000 480.059998,61.017113 
	C481.544952,61.017281 483.029938,61.258026 484.771942,61.736015 
	C485.028992,62.085564 485.055054,62.022385 484.594788,62.004715 
	C332.395569,61.977932 180.656647,61.968819 28.917734,61.959702 
	C28.917734,61.959702 28.945127,62.022362 28.958206,62.053955 
z"/>
<path fill="#47704C" opacity="1.000000" stroke="none" 
	d="
M268.000000,230.000000 
	C267.988678,219.504288 267.862030,209.505920 268.090576,199.515701 
	C268.124817,198.019684 269.473145,195.914841 270.809387,195.189850 
	C280.409088,189.981613 290.233765,185.188889 299.847839,180.006104 
	C309.760193,174.662506 319.445465,168.896912 329.369629,163.576294 
	C334.005463,161.090897 339.122986,159.503021 343.754639,157.011108 
	C353.971130,151.514481 363.928802,145.535400 374.164093,140.075623 
	C381.420868,136.204681 389.009338,132.961212 396.360260,129.259903 
	C408.334442,123.230736 420.248322,117.081268 432.161957,110.932724 
	C438.099823,107.868240 443.965576,104.664230 449.898651,101.590324 
	C451.258057,100.885986 452.760468,100.457558 454.894348,100.825310 
	C393.176453,201.562759 331.458527,302.300201 269.740601,403.037659 
	C269.160400,402.874603 268.580200,402.711578 268.000000,402.548553 
	C268.000000,345.199036 268.000000,287.849518 268.000000,230.000000 
z"/>
<path fill="#47704C" opacity="1.000000" stroke="none" 
	d="
M233.683197,385.378174 
	C221.223984,365.153168 208.942398,345.249878 196.703934,325.320099 
	C182.968903,302.953247 169.272156,280.562897 155.559967,258.182007 
	C140.297043,233.269974 125.037582,208.355804 109.772758,183.444946 
	C95.998596,160.966721 82.228836,138.485794 68.434753,116.019798 
	C65.370430,111.029030 62.212303,106.095863 58.296909,99.861656 
	C60.838295,100.530830 62.328522,100.660896 63.563404,101.291222 
	C71.234245,105.206642 78.796944,109.335594 86.492661,113.200256 
	C97.264359,118.609619 108.171394,123.750710 118.915619,129.212936 
	C122.990715,131.284653 126.667694,134.130615 130.710358,136.276611 
	C145.342422,144.043808 160.076431,151.618652 174.726746,159.351807 
	C189.174377,166.977951 203.538086,174.763306 217.995895,182.369934 
	C225.582108,186.361267 233.218994,190.272736 240.976364,193.914963 
	C244.588211,195.610764 246.094635,197.763870 246.086685,201.917740 
	C245.961685,267.232117 246.001419,332.546753 245.984238,397.861359 
	C245.983826,399.432617 245.764557,401.003815 245.647354,402.575043 
	C245.233383,402.706696 244.819412,402.838348 244.405441,402.970032 
	C240.896912,397.209412 237.388382,391.448792 233.683197,385.378174 
z"/>
<path fill="#47704C" opacity="1.000000" stroke="none" 
	d="
M79.100327,83.004257 
	C198.726913,83.001892 317.979797,83.001892 437.232697,83.001892 
	C437.414612,83.432083 437.596527,83.862282 437.778412,84.292473 
	C435.108856,85.867950 432.509064,87.580154 429.753113,88.986328 
	C425.782318,91.012375 421.633301,92.690742 417.673920,94.737312 
	C403.878479,101.868034 390.133698,109.096741 376.366180,116.281525 
	C367.943970,120.676781 359.444611,124.930351 351.108795,129.483459 
	C342.112946,134.397064 333.407471,139.854706 324.321167,144.587021 
	C312.696289,150.641434 300.698914,155.981506 289.083618,162.053223 
	C278.951599,167.349564 269.162506,173.299316 259.117249,178.768097 
	C257.968109,179.393677 255.903198,179.269165 254.674988,178.660690 
	C248.410965,175.557297 242.236053,172.264023 236.121658,168.871887 
	C231.541031,166.330658 227.179428,163.391571 222.577881,160.891769 
	C214.832947,156.684341 206.978073,152.679062 199.163620,148.599884 
	C190.742096,144.203842 182.368271,139.711884 173.873337,135.462265 
	C165.287582,131.167206 156.496689,127.278214 147.956314,122.898094 
	C143.150726,120.433441 138.792267,117.105606 134.019638,114.566483 
	C119.575432,106.881889 105.033875,99.379974 90.516014,91.834297 
	C85.805847,89.386185 81.051735,87.022629 76.317726,84.620392 
	C76.418945,84.206886 76.520157,83.793381 76.621368,83.379883 
	C77.323128,83.255455 78.024887,83.131035 79.100327,83.004257 
z"/>
<path fill="#47704C" opacity="1.000000" stroke="none" 
	d="
M29.194117,62.293667 
	C180.656647,61.968819 332.395569,61.977932 484.608398,61.973373 
	C483.369568,62.306133 481.656952,62.955391 479.944153,62.955925 
	C331.270721,63.002449 182.597290,63.000004 33.923870,62.983513 
	C32.439404,62.983349 30.954956,62.751381 29.194117,62.293667 
z"/>
<path fill="#47704C" opacity="1.000000" stroke="none" 
	d="
M188.000000,81.000000 
	C273.599396,81.000000 358.698761,81.000000 443.798157,81.000000 
	C443.798004,81.245796 443.797852,81.491600 443.797729,81.737396 
	C319.308014,81.737396 194.818329,81.737396 70.328644,81.737396 
	C70.326805,81.491600 70.324959,81.245796 70.323120,81.000000 
	C109.382080,81.000000 148.441040,81.000000 188.000000,81.000000 
z"/>
<path fill="#47704C" opacity="1.000000" stroke="none" 
	d="
M266.000000,300.000000 
	C266.000000,266.280884 266.000000,233.061752 266.000000,199.842636 
	C266.340179,199.843292 266.680389,199.843948 267.020569,199.844604 
	C267.020569,269.292206 267.020569,338.739807 267.020569,408.187408 
	C266.680389,408.190186 266.340179,408.192963 266.000000,408.195740 
	C266.000000,372.297150 266.000000,336.398590 266.000000,300.000000 
z"/>
<path fill="#47704C" opacity="1.000000" stroke="none" 
	d="
M247.000031,396.669678 
	C247.000000,330.768158 247.000000,265.318634 247.000000,199.869141 
	C247.241043,199.869263 247.482071,199.869385 247.723114,199.869507 
	C247.723114,267.235321 247.723114,334.601105 247.723114,401.966919 
	C247.482101,401.976288 247.241074,401.985687 247.000061,401.995056 
	C247.000061,400.370605 247.000061,398.746155 247.000031,396.669678 
z"/>
</svg>